<mxfile host="app.diagrams.net" modified="2023-11-23T16:06:14.110Z" agent="Mozilla/5.0 (Windows NT 10.0; Win64; x64) AppleWebKit/537.36 (KHTML, like Gecko) Chrome/119.0.0.0 Safari/537.36" etag="RHssdKlSrUOnHajKoa9f" version="21.3.2" type="device">
  <diagram name="Page-1" id="ater2FkWZ1D-dW2mV8Q2">
    <mxGraphModel dx="1050" dy="566" grid="1" gridSize="10" guides="1" tooltips="1" connect="1" arrows="1" fold="1" page="1" pageScale="1" pageWidth="827" pageHeight="1169" math="0" shadow="0">
      <root>
        <mxCell id="0" />
        <mxCell id="1" parent="0" />
        <mxCell id="xvXOUpUithD0OfJaXbYv-1" value="User" style="shape=umlActor;verticalLabelPosition=bottom;verticalAlign=top;html=1;outlineConnect=0;" vertex="1" parent="1">
          <mxGeometry x="190" y="350" width="30" height="60" as="geometry" />
        </mxCell>
        <mxCell id="xvXOUpUithD0OfJaXbYv-2" value="User" style="shape=umlActor;verticalLabelPosition=bottom;verticalAlign=top;html=1;outlineConnect=0;" vertex="1" parent="1">
          <mxGeometry x="190" y="250" width="30" height="60" as="geometry" />
        </mxCell>
        <mxCell id="xvXOUpUithD0OfJaXbYv-3" value="User" style="shape=umlActor;verticalLabelPosition=bottom;verticalAlign=top;html=1;outlineConnect=0;" vertex="1" parent="1">
          <mxGeometry x="190" y="160" width="30" height="60" as="geometry" />
        </mxCell>
        <mxCell id="xvXOUpUithD0OfJaXbYv-14" style="edgeStyle=orthogonalEdgeStyle;rounded=0;orthogonalLoop=1;jettySize=auto;html=1;entryX=0.5;entryY=0.5;entryDx=0;entryDy=0;entryPerimeter=0;startArrow=classic;startFill=1;fillColor=#60a917;strokeColor=#2D7600;" edge="1" parent="1" source="xvXOUpUithD0OfJaXbYv-5" target="xvXOUpUithD0OfJaXbYv-1">
          <mxGeometry relative="1" as="geometry" />
        </mxCell>
        <mxCell id="xvXOUpUithD0OfJaXbYv-5" value="Frontend using NextJS running in browser" style="rounded=0;whiteSpace=wrap;html=1;" vertex="1" parent="1">
          <mxGeometry x="270" y="350" width="120" height="60" as="geometry" />
        </mxCell>
        <mxCell id="xvXOUpUithD0OfJaXbYv-12" style="edgeStyle=orthogonalEdgeStyle;rounded=0;orthogonalLoop=1;jettySize=auto;html=1;entryX=0.5;entryY=0.5;entryDx=0;entryDy=0;entryPerimeter=0;fillColor=#60a917;strokeColor=#2D7600;startArrow=classic;startFill=1;" edge="1" parent="1" source="xvXOUpUithD0OfJaXbYv-6" target="xvXOUpUithD0OfJaXbYv-2">
          <mxGeometry relative="1" as="geometry">
            <Array as="points">
              <mxPoint x="220" y="280" />
              <mxPoint x="220" y="280" />
            </Array>
          </mxGeometry>
        </mxCell>
        <mxCell id="xvXOUpUithD0OfJaXbYv-6" value="Frontend using NextJS running in browser" style="rounded=0;whiteSpace=wrap;html=1;" vertex="1" parent="1">
          <mxGeometry x="270" y="250" width="120" height="60" as="geometry" />
        </mxCell>
        <mxCell id="xvXOUpUithD0OfJaXbYv-13" style="edgeStyle=orthogonalEdgeStyle;rounded=0;orthogonalLoop=1;jettySize=auto;html=1;entryX=0.5;entryY=0.5;entryDx=0;entryDy=0;entryPerimeter=0;startArrow=classic;startFill=1;fillColor=#60a917;strokeColor=#2D7600;" edge="1" parent="1" source="xvXOUpUithD0OfJaXbYv-7" target="xvXOUpUithD0OfJaXbYv-3">
          <mxGeometry relative="1" as="geometry" />
        </mxCell>
        <mxCell id="xvXOUpUithD0OfJaXbYv-7" value="Frontend using NextJS running in browser" style="rounded=0;whiteSpace=wrap;html=1;" vertex="1" parent="1">
          <mxGeometry x="270" y="160" width="120" height="60" as="geometry" />
        </mxCell>
        <mxCell id="xvXOUpUithD0OfJaXbYv-9" style="edgeStyle=orthogonalEdgeStyle;rounded=0;orthogonalLoop=1;jettySize=auto;html=1;entryX=1;entryY=0.5;entryDx=0;entryDy=0;fillColor=#d80073;strokeColor=#A50040;" edge="1" parent="1" source="xvXOUpUithD0OfJaXbYv-8" target="xvXOUpUithD0OfJaXbYv-7">
          <mxGeometry relative="1" as="geometry" />
        </mxCell>
        <mxCell id="xvXOUpUithD0OfJaXbYv-10" style="edgeStyle=orthogonalEdgeStyle;rounded=0;orthogonalLoop=1;jettySize=auto;html=1;fillColor=#d80073;strokeColor=#A50040;" edge="1" parent="1" source="xvXOUpUithD0OfJaXbYv-8" target="xvXOUpUithD0OfJaXbYv-6">
          <mxGeometry relative="1" as="geometry" />
        </mxCell>
        <mxCell id="xvXOUpUithD0OfJaXbYv-11" style="edgeStyle=orthogonalEdgeStyle;rounded=0;orthogonalLoop=1;jettySize=auto;html=1;entryX=1;entryY=0.5;entryDx=0;entryDy=0;fillColor=#d80073;strokeColor=#A50040;" edge="1" parent="1" source="xvXOUpUithD0OfJaXbYv-8" target="xvXOUpUithD0OfJaXbYv-5">
          <mxGeometry relative="1" as="geometry" />
        </mxCell>
        <mxCell id="xvXOUpUithD0OfJaXbYv-8" value="Backend using NextJS serving pages" style="rounded=0;whiteSpace=wrap;html=1;" vertex="1" parent="1">
          <mxGeometry x="540" y="250" width="140" height="60" as="geometry" />
        </mxCell>
        <mxCell id="xvXOUpUithD0OfJaXbYv-26" style="edgeStyle=orthogonalEdgeStyle;rounded=0;orthogonalLoop=1;jettySize=auto;html=1;entryX=1;entryY=0.75;entryDx=0;entryDy=0;fillColor=#1ba1e2;strokeColor=#006EAF;" edge="1" parent="1" source="xvXOUpUithD0OfJaXbYv-17" target="xvXOUpUithD0OfJaXbYv-6">
          <mxGeometry relative="1" as="geometry">
            <Array as="points">
              <mxPoint x="490" y="390" />
              <mxPoint x="490" y="295" />
            </Array>
          </mxGeometry>
        </mxCell>
        <mxCell id="xvXOUpUithD0OfJaXbYv-33" style="edgeStyle=orthogonalEdgeStyle;rounded=0;orthogonalLoop=1;jettySize=auto;html=1;entryX=0.996;entryY=0.652;entryDx=0;entryDy=0;entryPerimeter=0;startArrow=classic;startFill=1;fillColor=#1ba1e2;strokeColor=#006EAF;" edge="1" parent="1" source="xvXOUpUithD0OfJaXbYv-17" target="xvXOUpUithD0OfJaXbYv-5">
          <mxGeometry relative="1" as="geometry" />
        </mxCell>
        <mxCell id="xvXOUpUithD0OfJaXbYv-17" value="Python Backend written in Flask serving graphs" style="rounded=0;whiteSpace=wrap;html=1;" vertex="1" parent="1">
          <mxGeometry x="550" y="360" width="120" height="60" as="geometry" />
        </mxCell>
        <mxCell id="xvXOUpUithD0OfJaXbYv-39" style="edgeStyle=orthogonalEdgeStyle;rounded=0;orthogonalLoop=1;jettySize=auto;html=1;entryX=0.5;entryY=1;entryDx=0;entryDy=0;" edge="1" parent="1" source="xvXOUpUithD0OfJaXbYv-19" target="xvXOUpUithD0OfJaXbYv-17">
          <mxGeometry relative="1" as="geometry" />
        </mxCell>
        <mxCell id="xvXOUpUithD0OfJaXbYv-19" value="StandalonePlot generation library written in Python" style="rounded=0;whiteSpace=wrap;html=1;" vertex="1" parent="1">
          <mxGeometry x="550" y="470" width="120" height="60" as="geometry" />
        </mxCell>
        <mxCell id="xvXOUpUithD0OfJaXbYv-32" style="edgeStyle=orthogonalEdgeStyle;rounded=0;orthogonalLoop=1;jettySize=auto;html=1;entryX=1;entryY=0.75;entryDx=0;entryDy=0;fillColor=#1ba1e2;strokeColor=#006EAF;startArrow=classic;startFill=1;" edge="1" parent="1">
          <mxGeometry relative="1" as="geometry">
            <mxPoint x="550" y="390" as="sourcePoint" />
            <mxPoint x="390" y="210" as="targetPoint" />
            <Array as="points">
              <mxPoint x="550" y="390" />
              <mxPoint x="490" y="390" />
              <mxPoint x="490" y="210" />
            </Array>
          </mxGeometry>
        </mxCell>
        <mxCell id="xvXOUpUithD0OfJaXbYv-36" style="edgeStyle=orthogonalEdgeStyle;rounded=0;orthogonalLoop=1;jettySize=auto;html=1;entryX=0.999;entryY=0.332;entryDx=0;entryDy=0;entryPerimeter=0;" edge="1" parent="1" source="xvXOUpUithD0OfJaXbYv-34" target="xvXOUpUithD0OfJaXbYv-17">
          <mxGeometry relative="1" as="geometry" />
        </mxCell>
        <mxCell id="xvXOUpUithD0OfJaXbYv-34" value="JSON Dataset" style="shape=cylinder3;whiteSpace=wrap;html=1;boundedLbl=1;backgroundOutline=1;size=15;" vertex="1" parent="1">
          <mxGeometry x="740" y="340" width="60" height="80" as="geometry" />
        </mxCell>
      </root>
    </mxGraphModel>
  </diagram>
</mxfile>
